HIERARCHY
ROOT joint_Root
{
	OFFSET 0.0 0.0 0.0
	CHANNELS 6 Xposition Yposition Zposition Zrotation Xrotation Yrotation 
	JOINT Hips
	{
		OFFSET -0.726466 93.3139 -2.00062
		CHANNELS 6 Xposition Yposition Zposition Zrotation Xrotation Yrotation 
		JOINT Spine
		{
			OFFSET 15.7357 0.0 0.0
			CHANNELS 6 Xposition Yposition Zposition Zrotation Xrotation Yrotation 
			JOINT Chest
			{
				OFFSET 8.98455 -0.406207 0.0
				CHANNELS 6 Xposition Yposition Zposition Zrotation Xrotation Yrotation 
				JOINT Neck
				{
					OFFSET 16.3773 0.0 0.0
					CHANNELS 6 Xposition Yposition Zposition Zrotation Xrotation Yrotation 
					JOINT Head
					{
						OFFSET 6.45672 0.0 0.0
						CHANNELS 6 Xposition Yposition Zposition Zrotation Xrotation Yrotation 
						End Site
						{
							OFFSET 0.0 0.0 0.0
						}
					}
				}
				JOINT Shoulder_L
				{
					OFFSET 12.9942 -0.242716 4.98039
					CHANNELS 6 Xposition Yposition Zposition Zrotation Xrotation Yrotation 
					JOINT UpperArm_L
					{
						OFFSET 5.34809 0.0 0.0
						CHANNELS 6 Xposition Yposition Zposition Zrotation Xrotation Yrotation 
						JOINT LowerArm_L
						{
							OFFSET 24.3286 1.87007e-05 0.0
							CHANNELS 6 Xposition Yposition Zposition Zrotation Xrotation Yrotation 
							JOINT Hand_L
							{
								OFFSET 22.2916 0.0 0.0
								CHANNELS 6 Xposition Yposition Zposition Zrotation Xrotation Yrotation 
								End Site
								{
									OFFSET 0.0 0.0 0.0
								}
							}
						}
					}
				}
				JOINT Shoulder_R
				{
					OFFSET 12.9945 -0.242716 -4.98039
					CHANNELS 6 Xposition Yposition Zposition Zrotation Xrotation Yrotation 
					JOINT UpperArm_R
					{
						OFFSET -5.34813 0.0 0.0
						CHANNELS 6 Xposition Yposition Zposition Zrotation Xrotation Yrotation 
						JOINT LowerArm_R
						{
							OFFSET -24.3289 0.000322201 0.0
							CHANNELS 6 Xposition Yposition Zposition Zrotation Xrotation Yrotation 
							JOINT Hand_R
							{
								OFFSET -22.2915 -0.000108084 0.0
								CHANNELS 6 Xposition Yposition Zposition Zrotation Xrotation Yrotation 
								End Site
								{
									OFFSET 0.0 0.0 0.0
								}
							}
						}
					}
				}
			}
		}
		JOINT UpperLeg_L
		{
			OFFSET -2.19248 -6.46944 0.0
			CHANNELS 6 Xposition Yposition Zposition Zrotation Xrotation Yrotation 
			JOINT LowerLeg_L
			{
				OFFSET 39.0811 0.0 -1.23785e-05
				CHANNELS 6 Xposition Yposition Zposition Zrotation Xrotation Yrotation 
				JOINT Foot_L
				{
					OFFSET 40.9854 0.0 -1.26872e-05
					CHANNELS 6 Xposition Yposition Zposition Zrotation Xrotation Yrotation 
					JOINT Toes_L
					{
						OFFSET 11.7543 0.0 0.0
						CHANNELS 6 Xposition Yposition Zposition Zrotation Xrotation Yrotation 
						End Site
						{
							OFFSET 0.0 0.0 0.0
						}
					}
				}
			}
		}
		JOINT UpperLeg_R
		{
			OFFSET -2.19251 6.46944 0.0
			CHANNELS 6 Xposition Yposition Zposition Zrotation Xrotation Yrotation 
			JOINT LowerLeg_R
			{
				OFFSET -39.0811 -0.00228153 -0.0401928
				CHANNELS 6 Xposition Yposition Zposition Zrotation Xrotation Yrotation 
				JOINT Foot_R
				{
					OFFSET -40.9854 0.0 0.0
					CHANNELS 6 Xposition Yposition Zposition Zrotation Xrotation Yrotation 
					JOINT Toes_R
					{
						OFFSET -11.7543 0.0 0.0
						CHANNELS 6 Xposition Yposition Zposition Zrotation Xrotation Yrotation 
						End Site
						{
							OFFSET 0.0 0.0 0.0
						}
					}
				}
			}
		}
	}
}
MOTION
Frames:	4
Frame Time:	0.0333333
0.000000 0.000000 0.000000 0.000000 0.000000 -0.000000 -0.382854 92.249000 -0.627805 87.953500 -0.931430 5.138460 15.735700 0.000005 -0.000001 96.321600 85.673600 -96.908200 8.984550 -0.406207 -0.000000 0.839694 0.987850 -1.179490 16.377300 -0.000001 -0.000001 3.388580 -2.803080 1.654880 6.456720 -0.000001 -0.000000 0.622694 -2.650070 -1.831090 12.994200 -0.242716 4.980390 -89.938200 -0.201453 -72.931300 5.348090 -0.000007 -0.000001 -67.265700 38.458600 -13.024000 24.328600 0.000019 0.000005 0.708181 1.683680 -22.814900 22.291600 -0.000001 0.000005 5.700460 5.487170 -6.025370 12.994500 -0.242716 -4.980390 89.053900 3.024630 -72.621900 -5.348130 -0.000001 -0.000004 -71.541100 -23.082400 -83.104100 -24.328900 0.000322 -0.000009 19.360200 -1.100230 -93.128600 -22.291500 -0.000108 -0.000004 24.260700 5.279600 0.637205 -2.192480 -6.469440 -0.000000 -175.690000 -5.350340 -1.665740 39.081100 -0.000007 -0.000012 -0.110981 0.257847 23.287800 40.985400 -0.000006 -0.000013 -0.222396 2.240040 -66.717800 11.754300 -0.000000 0.000003 -0.000040 -0.000463 -16.595600 -2.192510 6.469440 -0.000001 179.540000 12.464400 -179.577000 -39.081100 -0.002282 -0.040193 0.000564 0.007465 20.272000 -40.985400 0.000008 0.000006 4.257400 6.549810 -66.137300 -11.754300 -0.000006 -0.000006 -0.008123 -0.089035 -20.198800
0.000000 0.000000 0.000000 0.000000 0.000000 -0.000000 -0.374084 92.242700 -0.617855 87.963900 -1.013150 5.112340 15.735700 0.000005 -0.000001 96.285700 85.672600 -96.868200 8.984550 -0.406207 -0.000000 0.842087 0.982400 -1.171380 16.377300 -0.000001 -0.000001 3.362980 -2.827900 1.696830 6.456720 -0.000001 -0.000000 0.627294 -2.660950 -1.846510 12.994200 -0.242716 4.980390 -89.942200 -0.188243 -72.918600 5.348090 -0.000007 -0.000001 -67.366700 38.732100 -13.126800 24.328600 0.000019 0.000005 0.610372 1.442280 -22.939400 22.291600 -0.000001 0.000005 5.566300 5.488780 -6.088010 12.994500 -0.242716 -4.980390 89.061800 3.002080 -72.635800 -5.348130 -0.000001 -0.000004 -71.541800 -23.119800 -83.279200 -24.328900 0.000322 -0.000009 19.369100 -1.085470 -93.085200 -22.291500 -0.000108 -0.000004 24.136400 5.282910 0.546362 -2.192480 -6.469440 -0.000000 -175.709000 -5.368130 -1.690510 39.081100 -0.000007 -0.000012 -0.110885 0.257273 23.316100 40.985400 -0.000006 -0.000013 -0.231553 2.175350 -66.743200 11.754300 -0.000000 0.000003 -0.000036 -0.000423 -16.594100 -2.192510 6.469440 -0.000001 179.513000 12.430200 -179.621000 -39.081100 -0.002282 -0.040193 -0.003086 0.017311 20.310900 -40.985400 0.000008 0.000006 4.158700 6.621350 -66.144100 -11.754300 -0.000006 -0.000006 -0.008305 -0.090503 -20.258700
0.000000 0.000000 0.000000 0.000000 0.000000 -0.000000 -0.366785 92.246600 -0.619630 87.961200 -1.017770 5.062910 15.735700 0.000005 -0.000001 96.152800 85.679900 -96.730800 8.984550 -0.406207 -0.000000 0.829720 0.960699 -1.162020 16.377300 -0.000001 -0.000001 3.350790 -2.868880 1.713190 6.456720 -0.000001 -0.000000 0.648441 -2.708740 -1.819800 12.994200 -0.242716 4.980390 -89.948800 -0.167473 -72.998700 5.348090 -0.000007 -0.000001 -67.557600 38.910200 -13.052400 24.328600 0.000019 0.000005 0.627754 1.473690 -23.074300 22.291600 -0.000001 0.000005 5.504080 5.489980 -6.135120 12.994500 -0.242716 -4.980390 89.063900 2.984050 -72.575200 -5.348130 -0.000001 -0.000004 -71.488100 -23.166900 -83.410800 -24.328900 0.000322 -0.000009 19.354200 -1.069500 -93.042500 -22.291500 -0.000108 -0.000004 24.181700 5.282530 0.556948 -2.192480 -6.469440 -0.000000 -175.729000 -5.325590 -1.728500 39.081100 -0.000007 -0.000012 -0.109212 0.253668 23.293500 40.985400 -0.000006 -0.000013 -0.233687 2.124520 -66.733700 11.754300 -0.000000 0.000003 -0.000049 -0.000555 -16.599100 -2.192510 6.469440 -0.000001 179.520000 12.451800 -179.651000 -39.081100 -0.002282 -0.040193 -0.002370 0.015401 20.280600 -40.985400 0.000008 0.000006 4.189910 6.646340 -66.139300 -11.754300 -0.000006 -0.000006 -0.008382 -0.091122 -20.284100
0.000000 0.000000 0.000000 0.000000 0.000000 -0.000000 -0.369796 92.249800 -0.607818 87.945000 -1.067300 5.068960 15.735700 0.000005 -0.000001 95.965900 85.670400 -96.536400 8.984550 -0.406207 -0.000000 0.851385 0.934095 -1.147040 16.377300 -0.000001 -0.000001 3.403290 -2.915500 1.731340 6.456720 -0.000001 -0.000000 0.637399 -2.735390 -1.810490 12.994200 -0.242716 4.980390 -89.953400 -0.152279 -72.996800 5.348090 -0.000007 -0.000001 -67.752700 39.100800 -12.949600 24.328600 0.000019 0.000005 0.623563 1.457920 -23.158300 22.291600 -0.000001 0.000005 5.463220 5.488800 -6.088620 12.994500 -0.242716 -4.980390 89.064500 2.983130 -72.579900 -5.348130 -0.000001 -0.000004 -71.342400 -23.272800 -83.490200 -24.328900 0.000322 -0.000009 19.172900 -1.042960 -92.997400 -22.291500 -0.000108 -0.000004 24.290300 5.284280 0.508867 -2.192480 -6.469440 -0.000000 -175.710000 -5.292900 -1.684380 39.081100 -0.000007 -0.000012 -0.108883 0.253270 23.263400 40.985400 -0.000006 -0.000013 -0.247930 2.094630 -66.739500 11.754300 -0.000000 0.000003 -0.000043 -0.000497 -16.596900 -2.192510 6.469440 -0.000001 179.543000 12.461300 -179.624000 -39.081100 -0.002282 -0.040193 -0.000095 0.009259 20.250600 -40.985400 0.000008 0.000006 4.272320 6.671680 -66.142400 -11.754300 -0.000006 -0.000006 -0.008200 -0.089659 -20.224300
